<?xml version="1.0" standalone="no"?>
<!DOCTYPE svg PUBLIC "-//W3C//DTD SVG 20010904//EN"
 "http://www.w3.org/TR/2001/REC-SVG-20010904/DTD/svg10.dtd">
<svg version="1.0" xmlns="http://www.w3.org/2000/svg"
 width="1280.000000pt" height="1280.000000pt" viewBox="0 0 1280.000000 1280.000000"
 preserveAspectRatio="xMidYMid meet">

<g transform="translate(0.000000,1280.000000) scale(0.100000,-0.100000)"
fill="#000000" stroke="none">
<path d="M6338 10338 c-35 -29 -72 -60 -83 -69 -11 -10 -54 -44 -95 -77 -316
-253 -850 -701 -771 -646 9 6 83 66 165 135 82 68 217 180 300 247 83 68 160
131 171 141 11 9 79 63 150 121 72 57 132 107 135 110 3 4 29 25 58 48 30 23
49 42 43 42 -5 0 -38 -24 -73 -52z"/>
<path d="M6435 10368 c3 -7 15 -19 26 -26 11 -7 85 -65 165 -128 79 -63 144
-112 144 -110 0 3 -57 51 -128 108 -191 155 -212 171 -207 156z"/>
<path d="M6343 10270 l-43 -38 -1 -1263 c-1 -695 -5 -1307 -9 -1359 -5 -78 -7
-54 -8 129 -2 187 -4 222 -16 218 -17 -7 -84 65 -92 99 -4 15 -13 24 -26 24
-20 0 -67 47 -68 68 0 7 -15 12 -40 12 -22 0 -40 5 -40 10 0 6 -18 10 -40 10
-29 0 -40 4 -40 15 0 8 -4 15 -10 15 -9 0 -17 -34 -24 -100 -2 -19 -4 -39 -5
-45 -2 -18 -21 19 -21 43 0 12 -4 22 -9 22 -4 0 -23 13 -42 29 -18 16 -45 32
-59 35 -14 3 -43 9 -65 13 -32 7 -40 13 -40 30 0 35 -47 101 -77 107 -14 3
-45 25 -68 50 -68 73 -88 67 -91 -29 l-1 -40 -8 35 c-5 19 -7 37 -5 40 2 3 6
98 9 210 6 265 1 229 -24 -170 -29 -470 -43 -845 -34 -920 5 -36 8 -71 7 -79
-1 -7 -6 -136 -13 -285 -8 -192 -18 -313 -35 -416 -27 -166 -42 -334 -80 -925
-9 -132 -25 -361 -35 -510 -11 -148 -29 -434 -41 -635 -12 -201 -25 -368 -29
-373 -3 -4 -71 -25 -149 -46 -79 -22 -145 -42 -147 -44 -10 -10 763 -300 780
-293 7 3 6 5 -2 5 -7 1 -10 6 -6 13 4 6 3 8 -2 5 -6 -3 -16 -2 -24 3 -12 7
-12 11 0 27 13 16 12 16 -8 -1 -18 -16 -25 -17 -35 -7 -9 10 -9 11 4 6 10 -4
19 0 23 11 4 11 2 15 -6 11 -7 -2 -19 2 -26 9 -7 8 -9 14 -5 15 4 0 -3 5 -16
10 -13 5 -22 12 -19 15 3 3 32 -7 64 -21 149 -67 554 -218 562 -210 3 3 -9 10
-26 16 -32 11 -35 29 -5 29 8 0 38 21 66 46 59 53 115 84 152 84 14 0 33 8 43
18 16 17 17 16 28 -18 10 -33 11 -28 18 60 4 52 6 1484 4 3181 l-3 3087 -42
-38z m-906 -1872 c-3 -8 -6 -5 -6 6 -1 11 2 17 5 13 3 -3 4 -12 1 -19z m-36
-121 c-13 -13 -15 1 -4 30 7 17 8 17 11 -1 2 -10 -1 -23 -7 -29z"/>
<path d="M6433 7137 c-2 -1745 0 -3165 4 -3157 8 20 33 44 33 32 0 -5 6 -9 14
-9 19 0 69 -38 140 -108 34 -33 64 -59 69 -57 4 1 7 -5 7 -13 0 -8 -4 -15 -10
-15 -5 0 -10 -5 -10 -11 0 -6 9 -8 23 -4 33 11 431 159 520 195 43 17 86 29
95 27 15 -4 15 -5 -1 -6 -10 0 -25 -8 -34 -16 -8 -9 -28 -19 -44 -22 -16 -3
-26 -10 -22 -16 3 -5 1 -7 -4 -4 -13 8 -126 -47 -116 -56 3 -4 0 -7 -9 -7 -8
0 -23 -9 -33 -20 -10 -11 -14 -20 -9 -20 12 0 197 65 334 118 202 77 356 134
478 178 144 51 164 60 142 68 -66 22 -238 66 -260 66 l-27 0 -12 188 c-6 103
-18 302 -26 442 -8 140 -19 327 -25 415 -6 88 -17 268 -25 400 -30 481 -36
563 -51 745 -9 102 -18 188 -20 192 -3 4 -7 38 -10 75 -3 37 -10 97 -15 133
-6 36 -14 286 -19 555 -9 475 -13 569 -45 1080 -18 267 -42 681 -51 881 l-7
132 -78 66 c-83 71 -167 140 -409 336 -280 228 -414 336 -450 362 l-35 27 -2
-3172z"/>
<path d="M6783 10093 c9 -14 87 -77 87 -70 0 3 -21 22 -47 43 -26 21 -44 33
-40 27z"/>
<path d="M6884 10012 c4 -7 73 -66 154 -131 81 -66 189 -154 241 -197 52 -43
91 -73 87 -66 -4 7 -58 54 -119 105 -186 154 -371 301 -363 289z"/>
<path d="M7380 9607 c0 -3 18 -20 40 -37 22 -17 40 -29 40 -27 0 3 -18 20 -40
37 -22 17 -40 29 -40 27z"/>
<path d="M5373 9415 c0 -22 2 -30 4 -17 2 12 2 30 0 40 -3 9 -5 -1 -4 -23z"/>
<path d="M5363 9245 c0 -22 2 -30 4 -17 2 12 2 30 0 40 -3 9 -5 -1 -4 -23z"/>
<path d="M5412 8900 c0 -14 2 -19 5 -12 2 6 2 18 0 25 -3 6 -5 1 -5 -13z"/>
<path d="M3159 4205 c-23 -12 -45 -43 -37 -50 11 -9 77 -39 144 -65 44 -17 88
-35 99 -40 33 -15 1105 -447 1240 -500 257 -100 463 -182 481 -191 15 -8 21
-21 22 -47 1 -20 13 -156 26 -302 14 -146 37 -395 51 -555 14 -159 28 -294 30
-300 2 -5 3 31 1 82 -2 51 1 98 5 105 6 8 9 -1 9 -25 0 -21 4 -36 9 -32 12 7
25 -31 16 -45 -3 -5 -2 -10 4 -10 5 0 12 8 14 18 4 14 5 14 6 -3 1 -12 17 -30
41 -45 22 -14 40 -28 40 -32 0 -5 7 -8 15 -8 8 0 15 -4 15 -10 0 -5 18 -14 40
-20 21 -6 42 -15 45 -20 3 -6 15 -10 26 -10 10 0 19 -5 19 -10 0 -9 44 -12
167 -10 18 0 35 -5 38 -10 3 -6 18 -10 33 -10 16 0 32 -8 40 -20 12 -19 22
-20 223 -19 171 2 213 -1 220 -12 8 -12 12 -11 23 4 15 20 17 13 31 -116 7
-62 24 -68 26 -9 2 33 2 34 6 8 3 -22 7 -26 13 -16 5 8 12 12 15 8 11 -10 24
-79 27 -133 1 -27 5 200 8 505 3 305 4 562 2 571 -2 9 -43 33 -95 57 -111 49
-1020 414 -1173 471 -60 22 -221 85 -359 141 -137 56 -313 126 -390 157 -225
88 -566 225 -755 303 -96 40 -238 97 -315 129 -77 31 -146 60 -152 64 -34 21
2 51 72 60 28 4 28 4 -5 5 -19 1 -47 -5 -61 -13z"/>
<path d="M9643 4211 c26 -4 55 -15 64 -24 29 -28 56 -15 -467 -224 -238 -95
-344 -137 -570 -223 -25 -10 -137 -55 -250 -100 -229 -92 -487 -192 -720 -280
-85 -32 -211 -81 -280 -109 -69 -29 -210 -85 -315 -126 -302 -118 -656 -263
-668 -275 -10 -9 -8 -705 2 -905 7 -131 8 -134 10 -50 2 75 4 85 12 58 6 -20
16 -33 26 -33 9 0 13 -3 10 -7 -4 -3 1 -11 11 -18 18 -12 311 -3 332 10 5 3
41 7 79 8 38 2 75 8 82 14 8 6 56 19 107 28 55 10 92 22 92 29 0 7 28 18 63
25 34 8 68 21 74 29 7 9 16 13 19 9 12 -11 44 13 44 33 0 13 9 22 28 26 38 9
102 54 102 72 0 13 3 12 15 -4 14 -19 14 -19 15 3 0 12 3 28 6 37 12 31 24 4
25 -57 1 -34 3 -55 5 -47 4 18 91 985 102 1129 l7 104 230 90 c127 49 381 149
565 222 184 73 407 161 495 196 88 34 214 84 280 111 66 27 187 76 268 109
157 63 197 84 197 103 0 19 -66 46 -108 45 -35 -2 -34 -2 11 -8z"/>
<path d="M4790 4127 l0 -63 -97 4 c-54 2 -129 7 -168 12 l-70 7 76 2 c42 0
105 4 140 8 l64 6 -55 14 c-30 8 -70 17 -87 20 -36 6 -35 22 0 25 85 7 -301
15 -723 16 -385 1 -515 -1 -548 -11 l-43 -13 38 -18 c149 -71 750 -315 1383
-560 135 -52 333 -131 440 -176 203 -84 845 -344 1105 -446 83 -32 160 -58
172 -56 12 1 47 14 77 27 30 13 160 65 288 114 213 81 633 250 998 399 80 33
213 85 295 117 492 187 686 261 995 385 190 76 392 158 450 182 l105 43 -45 7
c-58 9 -972 8 -1200 -1 -96 -4 -161 -8 -145 -10 l30 -2 -38 -20 c-36 -19 -37
-20 -22 -43 15 -23 15 -23 -31 -30 -26 -3 -69 -6 -95 -6 l-49 0 0 66 c0 36 -4
64 -8 62 -30 -13 -375 -145 -827 -318 -206 -79 -519 -202 -525 -207 -2 -2 2
-8 10 -13 10 -6 11 -10 3 -10 -7 0 -16 -12 -19 -27 -4 -16 -17 -46 -30 -69
-13 -22 -21 -44 -17 -47 3 -4 0 -7 -7 -7 -7 0 -10 -3 -7 -7 4 -3 -15 -17 -41
-30 -26 -13 -38 -21 -27 -17 36 10 347 124 435 159 47 18 95 36 108 40 31 9
28 -13 -4 -25 -29 -11 -59 -38 -51 -46 3 -3 32 -6 66 -7 33 -1 59 -3 57 -4 -1
-2 -77 -30 -169 -62 -184 -66 -318 -119 -460 -181 l-94 -42 -7 -90 c-3 -50 -7
-116 -8 -147 -1 -31 -4 7 -7 84 -4 77 -2 142 2 144 11 4 -31 23 -233 106 -219
90 -522 207 -609 235 -40 13 -68 26 -62 28 9 3 9 7 0 18 -7 8 -9 18 -5 21 4 4
10 2 14 -4 5 -8 13 -9 22 -3 13 9 13 10 0 10 -8 0 -20 10 -25 23 -7 15 -18 22
-37 21 -15 0 -25 3 -23 6 4 7 -20 19 -145 79 -77 37 -3 12 205 -70 110 -43
261 -101 335 -129 74 -28 217 -83 318 -122 100 -39 185 -68 188 -66 2 3 -23
16 -55 29 -33 12 -57 27 -55 31 3 4 -2 5 -10 2 -9 -3 -16 -1 -16 5 0 6 -8 11
-17 12 -11 0 -13 3 -6 6 8 3 -13 29 -51 66 -77 75 -105 115 -87 126 13 8 -165
82 -474 196 -164 61 -639 246 -680 265 -27 12 -96 40 -101 40 -2 0 -4 -28 -4
-63z m-625 -27 c50 -17 115 -39 145 -49 151 -52 880 -334 1060 -411 259 -111
384 -169 378 -175 -5 -5 -189 65 -683 262 -378 151 -567 225 -825 323 -151 58
-200 80 -174 80 5 0 50 -14 99 -30z m4591 21 c-4 -5 -39 -22 -79 -37 -86 -32
-272 -103 -377 -144 -41 -16 -118 -45 -170 -65 -52 -20 -124 -48 -160 -62 -36
-14 -94 -36 -130 -50 -127 -49 -348 -136 -555 -220 -115 -46 -217 -87 -225
-90 -8 -3 -3 3 11 15 74 60 350 177 804 342 88 32 250 93 360 135 156 60 505
184 523 185 2 0 1 -4 -2 -9z m-3266 -441 c-6 -11 -17 -20 -25 -20 -8 0 -17 0
-20 0 -3 0 -5 3 -4 8 0 4 6 6 14 4 7 -1 15 4 19 13 3 8 10 15 16 15 8 0 8 -6
0 -20z m300 -230 c8 -5 11 -10 5 -10 -5 0 -17 5 -25 10 -8 5 -10 10 -5 10 6 0
17 -5 25 -10z m617 -512 c-3 -8 -6 -5 -6 6 -1 11 2 17 5 13 3 -3 4 -12 1 -19z"/>
<path d="M6990 3840 c-18 -12 -2 -12 25 0 13 6 15 9 5 9 -8 0 -22 -4 -30 -9z"/>
<path d="M6465 3415 c-25 -12 -26 -14 -5 -9 28 7 60 23 45 23 -5 0 -23 -6 -40
-14z"/>
<path d="M6370 3400 c8 -5 20 -10 25 -10 6 0 3 5 -5 10 -8 5 -19 10 -25 10 -5
0 -3 -5 5 -10z"/>
<path d="M7581 2014 c0 -11 3 -14 6 -6 3 7 2 16 -1 19 -3 4 -6 -2 -5 -13z"/>
</g>
</svg>
